<svg id="Layer_1" enable-background="new 0 0 24 24" height="512" viewBox="0 0 24 24" width="512" xmlns="http://www.w3.org/2000/svg"><g><path d="m11 21c-2.4 0-4.7-.9-6.4-2.6s-2.6-4-2.6-6.4.9-4.7 2.6-6.4 4-2.6 6.4-2.6c.6 0 1 .4 1 1s-.4 1-1 1c-1.9 0-3.6.7-4.9 2.1-1.4 1.3-2.1 3-2.1 4.9s.7 3.6 2.1 5c1.3 1.3 3.1 2 4.9 2 .6 0 1 .4 1 1s-.4 1-1 1z"/></g><g><path d="m20 21c-2.4 0-4.7-.9-6.4-2.6s-2.6-4-2.6-6.4.9-4.7 2.6-6.4c1.7-1.7 4-2.6 6.4-2.6.6 0 1 .4 1 1s-.4 1-1 1c-1.9 0-3.6.7-5 2.1-1.3 1.3-2 3.1-2 4.9 0 1.9.7 3.6 2 5 1.3 1.3 3.1 2 5 2 .6 0 1 .4 1 1s-.4 1-1 1z"/></g><g><path d="m20 13h-8c-.6 0-1-.4-1-1s.4-1 1-1h8c.6 0 1 .4 1 1s-.4 1-1 1z"/></g></svg>